<svg xmlns="http://www.w3.org/2000/svg" width="19.1" height="16.883" viewBox="6.867 9.867 19.1 16.883"><g data-name="Icon-Heart"><path d="m16.426 26.036-.296-.259C9.41 20.312 7.6 18.392 7.6 15.253a4.657 4.657 0 0 1 4.653-4.653c2.142 0 3.36 1.219 4.173 2.142.812-.923 2.03-2.142 4.173-2.142a4.657 4.657 0 0 1 4.652 4.653c0 3.139-1.809 5.059-8.53 10.524l-.295.259h0ZM12.253 11.56a3.704 3.704 0 0 0-3.693 3.693c0 2.696 1.699 4.468 7.866 9.527 6.167-5.059 7.865-6.831 7.865-9.527A3.704 3.704 0 0 0 20.6 11.56c-1.847 0-2.844 1.108-3.62 1.994l-.553.628-.554-.628c-.776-.886-1.773-1.994-3.62-1.994h0Z" stroke-linejoin="round" stroke-linecap="round" stroke="#707070" fill="transparent" data-name="Fill-18"/></g></svg>