<svg xmlns="http://www.w3.org/2000/svg" width="42.025" height="38.6" viewBox="0 2.9 42.025 38.6"><g data-name="ICON____iconcart"><path d="M32.186 34.71c-1.924 0-3.324 1.608-3.324 3.395s1.574 3.395 3.324 3.395c1.924 0 3.323-1.608 3.323-3.395 0-1.966-1.574-3.396-3.323-3.396Zm0 5.182c-.875 0-1.75-.715-1.75-1.787 0-.894.7-1.787 1.75-1.787.874 0 1.749.714 1.749 1.787-.175.893-.875 1.787-1.75 1.787Z" fill="#00519d" fill-rule="evenodd" data-name="Caminho 202"/><path d="M19.941 34.71c-1.924 0-3.323 1.608-3.323 3.395 0 1.965 1.574 3.395 3.323 3.395 1.924 0 3.324-1.608 3.324-3.395 0-1.966-1.575-3.396-3.324-3.396Zm0 5.182c-.875 0-1.75-.715-1.75-1.787 0-.894.7-1.787 1.75-1.787.875 0 1.75.714 1.75 1.787 0 .893-.875 1.787-1.75 1.787Z" fill="#00519d" fill-rule="evenodd" data-name="Caminho 201"/><path d="M40.932 8.261H13.469c-.7 0-1.224.715-1.224 1.43v.357l4.373 16.977c.175.536.7 1.072 1.224 1.072h18.367c.525 0 1.05-.357 1.224-1.072l.7-2.323c.175-.536-.175-.894-.525-1.072h-.175c-.35 0-.7.357-.874.715l-.7 1.787H18.192l-4.198-16.084h26.063l-2.624 10.365c-.175.536.175.894.525 1.072h.175c.35 0 .7-.357.875-.715l2.973-10.722c.175-.715-.175-1.608-1.05-1.787Z" fill="#00519d" fill-rule="evenodd" data-name="Caminho 200"/><path d="M26.238 12.729v9.114c0 .536.35.893.875.893s.875-.357.875-.893v-9.114c0-.536-.35-.894-.875-.894s-.875.358-.875.894Z" fill="#00519d" fill-rule="evenodd" data-name="Caminho 199"/><path d="m32.885 12.371-3.148 9.114c-.175.358.175.894.7 1.072.524.18 1.049-.178 1.224-.536l3.323-9.114c.175-.357-.175-.893-.7-1.072-.524-.178-1.049.179-1.399.536Z" fill="#00519d" fill-rule="evenodd" data-name="Caminho 198"/><path d="M23.79 22.557c.524-.178.874-.536.7-1.072l-3.15-9.114c-.35-.357-.874-.714-1.399-.536-.525.179-.875.536-.7 1.072l3.149 9.114c.35.358.875.715 1.4.536Z" fill="#00519d" fill-rule="evenodd" data-name="Caminho 197"/><path d="M36.034 31.493H14.869L7.87 3.973c-.174-.716-.7-1.073-1.224-1.073H.875C.35 2.9 0 3.257 0 3.794c0 .536.35.893.875.893h5.422l6.997 27.52c.175.715.7 1.073 1.4 1.073h21.165c.35 0 .7-.358.875-.715.175-.358-.175-.894-.7-1.072Z" fill="#00519d" fill-rule="evenodd" data-name="Caminho 196"/></g></svg>