<svg xmlns="http://www.w3.org/2000/svg" width="48" height="48" viewBox="348 15 48 48"><g data-name="icon"><path d="M396 39c0 13.255-10.745 24-24 24s-24-10.745-24-24 10.745-24 24-24 24 10.745 24 24" fill="#f2f6f9" fill-rule="evenodd" data-name="Caminho 1"/><path d="M359.349 46.966a.325.325 0 0 0-.571.31 14.537 14.537 0 0 0 12.854 7.83.324.324 0 0 0 0-.647 13.906 13.906 0 0 1-12.3-7.493" fill="#0661c3" fill-rule="evenodd" data-name="Caminho 4"/><path d="M366.921 35.64a1.68 1.68 0 0 0-1.44-1.824 1.68 1.68 0 0 0-1.44 1.824 1.68 1.68 0 0 0 1.44 1.826 1.68 1.68 0 0 0 1.44-1.826" fill="#0661c3" fill-rule="evenodd" data-name="Caminho 5"/><path d="M378.5 35.64a1.68 1.68 0 0 0-1.44-1.824 1.68 1.68 0 0 0-1.44 1.824 1.68 1.68 0 0 0 1.44 1.826 1.68 1.68 0 0 0 1.44-1.826" fill="#0661c3" fill-rule="evenodd" data-name="Caminho 6"/><path d="M380.594 40.947a.163.163 0 0 0-.16-.164c-3.01.413-6.044.634-9.082.663a71.847 71.847 0 0 1-9.082-.663.166.166 0 0 0-.163.164c0 4.382 4.147 7.948 9.245 7.948 5.098 0 9.242-3.564 9.242-7.948" fill="#0661c3" fill-rule="evenodd" data-name="Caminho 7"/><path d="M364.187 38.94c0 .48-1.075.845-2.4.845-1.324 0-2.4-.377-2.4-.845 0-.468 1.078-.843 2.4-.843 1.323 0 2.4.377 2.4.843" fill="#0661c3" fill-rule="evenodd" data-name="Caminho 17"/><path d="M383.326 38.94c0 .48-1.078.845-2.4.845-1.322 0-2.4-.377-2.4-.845 0-.468 1.078-.843 2.4-.843 1.322 0 2.4.377 2.4.843" fill="#0661c3" fill-rule="evenodd" data-name="Caminho 18"/><path d="M387.96 30.387a.648.648 0 1 0-1.14.617c4.22 7.78 1.713 17.499-5.743 22.269-7.455 4.77-17.33 2.97-22.624-4.121-5.296-7.093-4.214-17.07 2.478-22.863 6.692-5.793 16.721-5.434 22.982.822a.648.648 0 0 0 .917-.917c-6.713-6.726-17.481-7.127-24.675-.917-7.194 6.21-8.372 16.92-2.698 24.544 5.673 7.624 16.27 9.572 24.285 4.465 8.013-5.107 10.723-15.537 6.208-23.899" fill="#0661c3" fill-rule="evenodd" data-name="Caminho 3"/></g></svg>